<svg class="svg-icon" style="width: 1em; height: 1em;vertical-align: middle;fill: #fff;overflow: hidden;" viewBox="0 0 1024 1024" version="1.1" xmlns="http://www.w3.org/2000/svg"><path d="M960.1024 821.1456c-4.9664 13.6192-42.0864 51.3024-308.6848-44.9536l-261.376-94.3616C299.0592 649.0112 171.008 597.4016 120.832 568.32c-35.1232-20.3264-42.8032-65.6384-42.8032-65.6384S69.6832 351.3344 64.5632 314.0608c-5.12-37.2736 4.864-43.6736 40.7552-25.1904 22.3232 11.52 95.488 131.1744 126.1568 182.6304C308.8896 491.008 378.0096 510.464 410.3168 520.0896 397.1584 432.1792 372.4288 267.776 363.5712 216.32 355.072 167.0144 391.7312 188.928 391.7312 188.928c16.9472 9.728 50.3296 33.8432 61.7472 51.3024 77.9264 119.0912 188.0064 337.92 196.4032 354.7136 45.8752 14.336 116.5824 37.5296 158.8224 52.736C919.0912 687.5648 966.7584 803.0208 960.1024 821.1456z"  /></svg>