<svg class="svg-icon" style="width: 1em; height: 1em;vertical-align: middle;fill: #fff;overflow: hidden;" viewBox="0 0 1024 1024" version="1.1" xmlns="http://www.w3.org/2000/svg"><path d="M1017.344 330.3936c6.0928 13.1584 6.5024 66.048-250.0608 186.4704l-251.5456 118.0672c-87.552 41.1136-214.5792 95.1808-270.592 110.1312-39.2192 10.4448-76.6464-16.1792-76.6464-16.1792s-112.9472-101.12-142.9504-123.8528c-29.952-22.7328-27.392-34.304 11.008-46.592 23.9104-7.6288 160.256 25.2416 218.368 39.936 68.5568-40.96 131.1744-76.0832 160.8192-92.0576-71.4752-52.8896-205.2096-151.6544-247.8592-181.76-40.9088-28.928 0.512-39.3216 0.512-39.3216 18.8416-5.0688 59.4944-11.6736 79.9744-7.3728 139.3152 29.1328 371.8656 106.0352 389.6832 111.9232 42.5984-22.3232 108.9536-55.9104 149.6064-75.008C893.9008 264.9088 1009.2032 312.8832 1017.344 330.3936z"  /></svg>