<svg xmlns="http://www.w3.org/2000/svg" width="35" height="25" viewBox="0 0 35 25">
    <g>
        <path fill="#f8c024" d="M3.273 30.5a2.043 2.043 0 0 1-2.2-2.249c0-.865.088-1.99 1.234-2.336 1.851-.346 5.025-1.211 6.347-3.46C2.745 22.2.1 18.043.1 13.978a8.464 8.464 0 0 1 8.551-8.3c4.231 0 8.551 3.028 8.551 9.948.088 8.127-6.171 14.787-13.929 14.874zM8.739 6.538a7.588 7.588 0 0 0-7.669 7.44c0 4.671 3.262 7.612 8.374 7.612h.617l-.261.61c-1.234 3.028-5.113 4.152-7.228 4.585-.176.087-.617.173-.617 1.384 0 1.038.441 1.471 1.322 1.471 8.11-.087 13.047-7.353 13.047-14.1.084-5.369-3.001-9.002-7.585-9.002zm12.429 23.875a2.043 2.043 0 0 1-2.2-2.249c0-.519 0-1.99 1.234-2.336 1.851-.346 5.025-1.211 6.347-3.46a9.387 9.387 0 0 1-6.171-2.422 8.066 8.066 0 0 1-2.38-6.055A8.48 8.48 0 0 1 26.546 5.5c5.113 0 8.551 3.979 8.551 9.948a14.362 14.362 0 0 1-13.929 14.965zm6.788-8.91l-.264.606c-1.234 3.028-5.113 4.152-7.228 4.585-.176.087-.617.173-.617 1.384 0 1.038.441 1.471 1.322 1.471 6.435-.087 13.047-5.363 13.047-14.1 0-5.536-3-9.083-7.669-9.083a7.6 7.6 0 0 0-7.669 7.526 7.439 7.439 0 0 0 2.116 5.363 8.721 8.721 0 0 0 6.259 2.163z" transform="translate(-3705 -4202) translate(3704.9 4196.5)"/>
    </g>
</svg>
