<svg xmlns="http://www.w3.org/2000/svg" width="26" height="25" viewBox="0 0 26 25">
    <path fill="#f8c023" d="M.19 17.135A28.3 28.3 0 0 1 18.8 2.041L18.205.2l-.229.072A28.428 28.428 0 0 0 .19 17.135zm4.976 1.932A23.013 23.013 0 0 1 20.31 7.1c.1-.026.236-.059.334-.085l-.6-1.867-.243.078A22.976 22.976 0 0 0 5.179 19.067zm4.064 1.489A18.692 18.692 0 0 1 21.116 9.305c.1-.033.2-.059.288-.091l.59 1.834.013.046c-.2.039-.485.111-.682.163a18.728 18.728 0 0 0-12.1 9.3zm4.15 1.671a14.3 14.3 0 0 1 9.008-6.686c.256-.059.5-.117.76-.163l.3-.026-.634-1.952-.013.007c-.111.033-.223.065-.334.1a14.24 14.24 0 0 0-9.087 8.721zm3.94 1.58a10.2 10.2 0 0 1 6.08-4.181c.341-.085.675-.143 1.016-.2l.374-.013-.649-2.029-.072.02h-.007c-.111.033-.19.059-.3.1a10.076 10.076 0 0 0-6.442 6.304zm5.113 1.255a4.077 4.077 0 0 1 1.927-1.073 4.852 4.852 0 0 1 1.829-.1l-.715-2.218c-.111.026-.229.059-.341.091A4.091 4.091 0 0 0 22.3 25.2z" transform="translate(-.19 -.2)"/>
</svg>
