<svg xmlns="http://www.w3.org/2000/svg" width="43" height="32" viewBox="0 0 43 32">
    <path fill="#fff" d="M-1544.2-60.037a.5.5 0 0 0-.57.412.49.49 0 0 0 .417.563.5.5 0 0 0 .57-.412.49.49 0 0 0-.417-.563zm-10.07 4.937a.5.5 0 0 0-.57.412.49.49 0 0 0 .417.563.5.5 0 0 0 .57-.412.5.5 0 0 0-.417-.563zm-3.906 10.564a.5.5 0 0 0 .57-.412.49.49 0 0 0-.417-.563.5.5 0 0 0-.57.412.481.481 0 0 0 .417.559zm10.5-20.083a13.7 13.7 0 0 0-15.67 11.316 13.592 13.592 0 0 0 11.47 15.491 13.708 13.708 0 0 0 15.687-11.328 13.611 13.611 0 0 0-11.483-15.483zm-7.613 18.25A7.119 7.119 0 0 1-1557-52.2a7.063 7.063 0 0 1 .736-2.222.476.476 0 0 0 .375.263.5.5 0 0 0 .57-.412.49.49 0 0 0-.417-.563.189.189 0 0 0-.089 0 7.317 7.317 0 0 1 7.127-3.049 7.2 7.2 0 0 1 6.073 8.2 7.193 7.193 0 0 1-5.335 5.836.314.314 0 0 0 .032-.113.49.49 0 0 0-.417-.563.5.5 0 0 0-.57.412.526.526 0 0 0 .14.433 7.428 7.428 0 0 1-2.156-.007 7.5 7.5 0 0 1-1.26-.311l.792-2.669a5.024 5.024 0 0 0 .914.243 4.487 4.487 0 0 0 4.8-2.627.488.488 0 0 0 .373.277.5.5 0 0 0 .57-.412.49.49 0 0 0-.417-.563.536.536 0 0 0-.3.042 4.066 4.066 0 0 0 .08-.414 4.433 4.433 0 0 0-3.742-5.053 4.474 4.474 0 0 0-5.117 3.7 4.363 4.363 0 0 0 1.006 3.532zm1.813-5.289a3.7 3.7 0 0 1 4.228-3.053 3.667 3.667 0 0 1 3.091 4.175 3.7 3.7 0 0 1-4.228 3.053 3.711 3.711 0 0 1-.785-.209l.967-3.215a.476.476 0 0 0 .375.263.5.5 0 0 0 .57-.412.49.49 0 0 0-.417-.563.5.5 0 0 0-.57.412.5.5 0 0 0 .032.269l-2.428 2.2a3.565 3.565 0 0 1-.831-2.924zm1.912 11.867a13.51 13.51 0 0 1-1.851-.431l1-3.356a8.935 8.935 0 0 0 1.376.328 8.065 8.065 0 0 0 9.227-6.663 7.992 7.992 0 0 0-6.747-9.113 8.065 8.065 0 0 0-9.227 6.663 7.909 7.909 0 0 0 1.922 6.507l-2.6 2.362a11.357 11.357 0 0 1-2.807-9.39A11.6 11.6 0 0 1-1548-62.47a11.5 11.5 0 0 1 9.7 13.106 11.6 11.6 0 0 1-13.26 9.564z" transform="translate(1571.281 69.653)"/>
    <path fill="#fcb00d" d="M-1678.786-136.253l-.11 9.729a1.6 1.6 0 0 1-.5 1.15 1.461 1.461 0 0 1-1 .4h-.047a1.6 1.6 0 0 1-1.511-1.644l.11-9.729a1.6 1.6 0 0 1 .5-1.15 1.461 1.461 0 0 1 1.048-.4 1.6 1.6 0 0 1 1.51 1.644zm31.771.864a4.827 4.827 0 0 0-2.482-1.836l.037-.008a16.141 16.141 0 0 0-6.252-9.3 19.412 19.412 0 0 0-11.474-3.69 19.392 19.392 0 0 0-11.545 3.743 16.187 16.187 0 0 0-6.078 8.827 4.484 4.484 0 0 0-1.954 1.084 6.649 6.649 0 0 0-1.952 4.8 7.133 7.133 0 0 0 1.3 4.283 4.568 4.568 0 0 0 3.535 2.009h.155a3.359 3.359 0 0 0 .337-.017.925.925 0 0 0 .845-.9l.114-10.431a.887.887 0 0 0-.058-.326c1.656-6.268 7.991-10.759 15.3-10.759a16.979 16.979 0 0 1 10.037 3.22 13.844 13.844 0 0 1 5.34 7.843.893.893 0 0 0-.079.356l-.114 10.431a.923.923 0 0 0 .8.915 4.071 4.071 0 0 0 .468.042h.128a4.317 4.317 0 0 0 2.94-1.209 6.65 6.65 0 0 0 1.952-4.8 7.134 7.134 0 0 0-1.3-4.277zm-6.972-2.5a1.461 1.461 0 0 0-1.048.4 1.6 1.6 0 0 0-.5 1.15l-.11 9.729a1.6 1.6 0 0 0 1.511 1.644h.047a1.462 1.462 0 0 0 1-.4 1.6 1.6 0 0 0 .5-1.15l.11-9.729a1.6 1.6 0 0 0-1.51-1.645z" transform="translate(1688.716 150.22)"/>
</svg>
