<svg xmlns="http://www.w3.org/2000/svg" width="32" height="32" viewBox="0 0 32 32">
    <defs>
        <style>
            .cls-3{fill:#fff}.cls-2{fill:none}
        </style>
    </defs>
    <g id="watch-videos-icon" transform="translate(.031 .005)">
        <path id="Rectangle_293" data-name="Rectangle 293" class="cls-2" transform="translate(-.006 -.001)" d="M0 0h31.944v31.965H0z"/>
        <path id="Radar_Urklippsbana" class="cls-3" d="M20.755 5.193c-.319-.08-.559.16-.639.479-.08.32.16.559.479.639.319.08.559-.16.639-.479 0-.32-.16-.639-.479-.639zM9.9 10.546c-.319-.08-.559.16-.639.479-.08.32.16.559.479.639.319.08.559-.16.639-.479a.608.608 0 0 0-.479-.639zM5.743 22.053c.319.08.559-.16.639-.479.08-.32-.16-.559-.479-.639-.319-.08-.559.16-.639.479-.08.32.16.559.479.639zM17 .159A14.843 14.843 0 0 0 .154 12.464a14.691 14.691 0 0 0 12.3 16.86A14.725 14.725 0 0 0 29.3 17.019 14.733 14.733 0 0 0 17 .159zm-8.145 19.9a7.715 7.715 0 0 1-1.038-8.71.8.8 0 0 0 .4.32c.319.08.559-.16.639-.479.08-.32-.16-.559-.479-.639H8.3a8.006 8.006 0 0 1 7.664-3.361 7.862 7.862 0 0 1 6.548 8.949 7.892 7.892 0 0 1-5.749 6.392v-.16c.08-.32-.16-.559-.479-.639-.319-.08-.559.16-.639.479a.587.587 0 0 0 .16.479 11.214 11.214 0 0 1-2.316 0 8.349 8.349 0 0 1-1.357-.32l.878-2.877a4.209 4.209 0 0 0 .958.24 4.932 4.932 0 0 0 5.19-2.877.8.8 0 0 0 .4.32c.319.08.559-.16.639-.479.08-.32-.16-.559-.479-.639a.48.48 0 0 0-.319.08c0-.16.08-.32.08-.479a4.8 4.8 0 0 0-3.992-5.513 4.8 4.8 0 0 0-5.51 4 4.525 4.525 0 0 0 1.118 3.835zm1.918-5.759a4 4 0 1 1 3.354 4.555c-.319-.08-.559-.16-.878-.24l1.038-3.515a.8.8 0 0 0 .4.32c.319.08.559-.16.639-.479.08-.32-.16-.559-.479-.639-.319-.08-.559.16-.639.479v.32l-2.635 2.4a4.5 4.5 0 0 1-.8-3.2zm2.077 12.946a9.068 9.068 0 0 1-2-.479l1.118-3.676a8.476 8.476 0 0 0 1.517.32 8.666 8.666 0 0 0 9.9-7.271 8.67 8.67 0 0 0-7.266-9.908A8.76 8.76 0 0 0 6.142 13.5a8.635 8.635 0 0 0 2.076 7.111l-2.794 2.56a12.6 12.6 0 0 1-3.035-10.227A12.433 12.433 0 0 1 16.682 2.556a12.554 12.554 0 0 1 10.46 14.3 12.577 12.577 0 0 1-14.292 10.39z"/>
        <g id="Group_594" data-name="Group 594" transform="translate(17.57 17.595)">
            <circle id="Ellipse_1" class="cls-3" cx="5.6" cy="5.6" r="5.6" transform="translate(1.568 1.568)"/>
            <g id="play_circle">
                <path id="Path_3073" d="M404.7 1234.5a7.2 7.2 0 1 0 7.2 7.2 7.221 7.221 0 0 0-7.2-7.2zm2.8 7.52-2.32 1.28-2.32 1.28a.344.344 0 0 1-.56-.16c0-.08-.08-.16-.08-.24v-5.12a.448.448 0 0 1 .48-.4.294.294 0 0 1 .24.08l2.32 1.28 2.32 1.28c.24.08.24.32.16.56a.618.618 0 0 0-.24.16z" transform="translate(-397.5 -1234.5)" style="fill:#fcb02d"/>
            </g>
        </g>
    </g>
</svg>
